<svg xmlns="http://www.w3.org/2000/svg" version="1.1" xmlns:xlink="http://www.w3.org/1999/xlink" width="200" height="200"><svg version="1.1" viewBox="0 0 800 800" width="200" height="200" xmlns="http://www.w3.org/2000/svg">
<path transform="translate(512)" d="m0 0h18l14 7 7 6 9 13 4 9 3 15v16l10-2 40-10 6-1h11l11 4 6 4 8 7 7 11 5 12 2 16v482l-1 16-3 9-6 10-9 8-15 8-36 12-52 17-5 1-1-1v-41l10-4 50-15 19-6 6-4 1-16v-477l-2-6-3-4h-8l-210 57-111 30-10 4-7 6-4 8-1 6v487l2 5 5 3 11-2 47-12 60-17 8-2 1 1v43l-7 3-35 10-41 10-35 7h-21l-10-4-8-6-8-8-8-15-3-13v-16l-9 1-34 7-13 2-13-1-10-4-8-6-5-5-7-9-5-12-2-9v-503l4-13 7-12 9-10 10-7 12-6 18-5 34-8 59-16 122-35 57-16zm0 42-42 11-110 30-70 19-74 20-28 8-12 6-6 9-2 8v489l4 6 2 1h9l50-13 1-440 4-13 5-10 11-12 11-8 13-6 64-16 48-13 126-36 9-3v-30l-3-5-3-2z" fill="#8dc63f"></path>
<path transform="translate(469,475)" d="m0 0h8l10 6 14 10 18 13 17 12 18 13 14 10 4 4v7l-6 5-29 9-10 3v203l-5 3-79 23-10 3-4 1-1-2-1-202-37 10h-5l-5-6-1-7 5-9 10-14 52-72 12-16 8-6z" fill="#8dc63f"></path>
<path transform="translate(553,349)" d="m0 0 9 2 7 4 5 7 2 6v8l-5 10-7 6-23 7-140 39-18 5-6 1h-9l-8-4-6-8-2-5v-10l5-10 5-4 10-4 35-10 93-26 47-13z" fill="#8dc63f"></path>
<path transform="translate(550,178)" d="m0 0 10 1 8 4 6 8 2 6v8l-5 10-6 5-11 4-50 14-104 29-23 6h-7l-8-3-7-8-3-7v-9l4-9 7-6 21-7 51-14 82-23z" fill="#8dc63f"></path>
<path transform="translate(553,266)" d="m0 0 9 2 6 4 6 7 2 7v7l-4 9-8 7-19 6-126 35-40 11h-11l-8-4-6-8-2-5v-10l5-10 9-6 27-8 93-26 54-15z" fill="#8dc63f"></path>
</svg><style>@media (prefers-color-scheme: light) { :root { filter: none; } }
@media (prefers-color-scheme: dark) { :root { filter: none; } }
</style></svg>